<svg id="Grupo_1073018" data-name="Grupo 1073018" xmlns="http://www.w3.org/2000/svg" width="57.293" height="18.899" viewBox="0 0 57.293 18.899">
  <g id="Grupo_1072927" data-name="Grupo 1072927">
    <path id="Trazado_818457" data-name="Trazado 818457" d="M57.293,9.377l-.959,1.092a6.013,6.013,0,0,1-9.282,0l-.577-.657a6.015,6.015,0,0,0-9.282,0,6.013,6.013,0,0,1-9.282,0l-.052-.06a6.015,6.015,0,0,0-9.282,0l-.472.538a6.013,6.013,0,0,1-9.282,0l-.366-.418A5.978,5.978,0,0,0,0,9.084v3.293a5.976,5.976,0,0,1,8.456.787l.366.418a6.013,6.013,0,0,0,9.282,0l.472-.538a6.013,6.013,0,0,1,9.282,0l.052.06a6.013,6.013,0,0,0,9.282,0,6.013,6.013,0,0,1,9.282,0l.577.657a6.013,6.013,0,0,0,9.282,0l.959-1.092Z" transform="translate(0 2.948)" fill="#bae9d9"/>
    <path id="Trazado_818458" data-name="Trazado 818458" d="M57.293,1.814l-.959,1.092a6.013,6.013,0,0,1-9.282,0l-.577-.657a6.013,6.013,0,0,0-9.282,0,6.013,6.013,0,0,1-9.282,0l-.052-.06a6.013,6.013,0,0,0-9.282,0l-.472.538a6.013,6.013,0,0,1-9.282,0l-.366-.418A5.978,5.978,0,0,0,0,1.521V4.812A5.978,5.978,0,0,1,8.456,5.6l.366.418a6.013,6.013,0,0,0,9.282,0l.472-.538a6.013,6.013,0,0,1,9.282,0l.052.06a6.013,6.013,0,0,0,9.282,0,6.013,6.013,0,0,1,9.282,0l.577.657a6.013,6.013,0,0,0,9.282,0l.959-1.092Z" transform="translate(0 0.001)" fill="#bae9d9"/>
  </g>
</svg>
