<svg xmlns="http://www.w3.org/2000/svg" xmlns:xlink="http://www.w3.org/1999/xlink" width="122" height="122" viewBox="0 0 122 122">
  <defs>
    <filter id="Trazado_824488" x="0" y="0" width="122" height="122" filterUnits="userSpaceOnUse">
      <feOffset dy="3" input="SourceAlpha"/>
      <feGaussianBlur stdDeviation="7" result="blur"/>
      <feFlood flood-color="#fff" flood-opacity="0.659"/>
      <feComposite operator="in" in2="blur"/>
      <feComposite in="SourceGraphic"/>
    </filter>
  </defs>
  <g id="Grupo_1074190" data-name="Grupo 1074190" transform="translate(-184 -776)">
    <g transform="matrix(1, 0, 0, 1, 184, 776)" filter="url(#Trazado_824488)">
      <path id="Trazado_824488-2" data-name="Trazado 824488" d="M40,0A40,40,0,1,1,0,40,40,40,0,0,1,40,0Z" transform="translate(21 18)" fill="#ffce00"/>
    </g>
    <g id="FilledOutline" transform="translate(195.808 782.941)">
      <path id="Trazado_825066" data-name="Trazado 825066" d="M66.8,32h39.188a2.8,2.8,0,0,1,2.8,2.8V81.452a2.8,2.8,0,0,1-2.8,2.8h-5.6a2.8,2.8,0,0,1-2.8-2.8V76.787H64V34.8A2.8,2.8,0,0,1,66.8,32Z" transform="translate(-35.335 -7.067)" fill="#ccdce5"/>
      <path id="Trazado_825067" data-name="Trazado 825067" d="M66.8,32h39.188a2.8,2.8,0,0,1,2.8,2.8v4.665H64V34.8A2.8,2.8,0,0,1,66.8,32Z" transform="translate(-35.335 -7.067)" fill="#1682fb"/>
      <path id="Trazado_825068" data-name="Trazado 825068" d="M160,32h11.2v7.464H160Z" transform="translate(-120.138 -7.067)" fill="#1682fb"/>
      <path id="Trazado_825069" data-name="Trazado 825069" d="M352,32h8.4a2.8,2.8,0,0,1,2.8,2.8v4.665H352Z" transform="translate(-289.745 -7.067)" fill="#95f11c"/>
      <g id="Grupo_1074189" data-name="Grupo 1074189" transform="translate(28.665 32.397)">
        <path id="Trazado_825070" data-name="Trazado 825070" d="M64,96H75.2v7.464H64Z" transform="translate(-64 -96)" fill="#abbac2"/>
        <path id="Trazado_825071" data-name="Trazado 825071" d="M256,96h11.2v7.464H256Z" transform="translate(-233.607 -96)" fill="#abbac2"/>
        <path id="Trazado_825072" data-name="Trazado 825072" d="M352,160h11.2v7.464H352Z" transform="translate(-318.41 -152.536)" fill="#abbac2"/>
        <path id="Trazado_825073" data-name="Trazado 825073" d="M256,224h11.2v7.464H256Z" transform="translate(-233.607 -209.071)" fill="#abbac2"/>
        <path id="Trazado_825074" data-name="Trazado 825074" d="M160,160h11.2v7.464H160Z" transform="translate(-148.803 -152.536)" fill="#abbac2"/>
        <path id="Trazado_825075" data-name="Trazado 825075" d="M64,224H75.2v7.464H64Z" transform="translate(-64 -209.071)" fill="#abbac2"/>
        <path id="Trazado_825076" data-name="Trazado 825076" d="M352,288h11.2v7.464H352Z" transform="translate(-318.41 -265.607)" fill="#abbac2"/>
        <path id="Trazado_825077" data-name="Trazado 825077" d="M256,352h11.2v7.464H256Z" transform="translate(-233.607 -322.142)" fill="#abbac2"/>
        <path id="Trazado_825078" data-name="Trazado 825078" d="M352,416h11.2v4.665a2.8,2.8,0,0,1-2.8,2.8h-5.6a2.8,2.8,0,0,1-2.8-2.8Z" transform="translate(-318.41 -378.678)" fill="#abbac2"/>
        <path id="Trazado_825079" data-name="Trazado 825079" d="M160,288h11.2v7.464H160Z" transform="translate(-148.803 -265.607)" fill="#abbac2"/>
      </g>
      <path id="Trazado_825080" data-name="Trazado 825080" d="M57.192,345.728H34.8a2.8,2.8,0,0,1-2.8-2.8V332.665a2.8,2.8,0,0,1,2.8-2.8h4.665L41.331,328l1.866,1.866h14a2.8,2.8,0,0,1,2.8,2.8v10.264a2.8,2.8,0,0,1-2.8,2.8Z" transform="translate(-7.067 -268.544)" fill="#88bf40"/>
      <path id="Trazado_825081" data-name="Trazado 825081" d="M102.653,74.385V27.732A3.736,3.736,0,0,0,98.921,24H59.732A3.736,3.736,0,0,0,56,27.732V58.523h1.866v-2.8H67.2v2.8h1.866v-2.8h9.331v2.8h1.866v-2.8H89.59v5.6h-5.6v1.866h5.6v5.6h-5.6v1.866h5.6v3.732a3.736,3.736,0,0,0,3.732,3.732h5.6a3.736,3.736,0,0,0,3.732-3.732ZM89.59,38.929H80.259v-5.6H89.59Zm1.866-5.6h9.331v5.6H91.456Zm-11.2-1.866v-5.6H89.59v5.6Zm-1.866,0H69.063v-5.6h9.331Zm0,1.866v5.6H69.063v-5.6Zm-11.2,5.6H57.866v-5.6H67.2Zm0,1.866v5.6H57.866v-5.6Zm1.866,0h9.331v5.6H69.063Zm11.2,0H89.59v5.6H80.259Zm11.2,0h9.331v5.6H91.456Zm9.331,7.464v5.6H91.456v-5.6Zm0-20.527v3.732H91.456v-5.6h7.464A1.868,1.868,0,0,1,100.787,27.732ZM59.732,25.866H67.2v5.6H57.866V27.732A1.868,1.868,0,0,1,59.732,25.866ZM57.866,53.858v-5.6H67.2v5.6Zm11.2,0v-5.6h9.331v5.6Zm11.2,0v-5.6H89.59v5.6Zm11.2,1.866h9.331v5.6H91.456Zm9.331,7.464v5.6H91.456v-5.6Zm-9.331,11.2V70.653h9.331v3.732a1.868,1.868,0,0,1-1.866,1.866h-5.6a1.868,1.868,0,0,1-1.866-1.866Z" transform="translate(-28.268)"/>
      <path id="Trazado_825082" data-name="Trazado 825082" d="M88,56h1.866v1.866H88Z" transform="translate(-56.536 -28.268)"/>
      <path id="Trazado_825083" data-name="Trazado 825083" d="M120,56h1.866v1.866H120Z" transform="translate(-84.803 -28.268)"/>
      <path id="Trazado_825084" data-name="Trazado 825084" d="M184,56h5.6v1.866H184Z" transform="translate(-141.339 -28.268)"/>
      <path id="Trazado_825085" data-name="Trazado 825085" d="M280,56h5.6v1.866H280Z" transform="translate(-226.142 -28.268)"/>
      <path id="Trazado_825086" data-name="Trazado 825086" d="M376,56h5.6v1.866H376Z" transform="translate(-310.946 -28.268)"/>
      <path id="Trazado_825087" data-name="Trazado 825087" d="M53.858,335.862V325.6a3.736,3.736,0,0,0-3.732-3.732H36.516l-1.593-1.593a.933.933,0,0,0-1.32,0l-1.593,1.593H27.732A3.736,3.736,0,0,0,24,325.6v10.264a3.736,3.736,0,0,0,3.732,3.732H50.126A3.736,3.736,0,0,0,53.858,335.862Zm-27.992,0V325.6a1.868,1.868,0,0,1,1.866-1.866H32.4a.933.933,0,0,0,.66-.273l1.206-1.206,1.206,1.206a.933.933,0,0,0,.66.273h14a1.868,1.868,0,0,1,1.866,1.866v10.264a1.868,1.868,0,0,1-1.866,1.866H27.732A1.868,1.868,0,0,1,25.866,335.862Z" transform="translate(0 -261.477)"/>
      <path id="Trazado_825088" data-name="Trazado 825088" d="M80,376h1.866v1.866H80Z" transform="translate(-49.469 -310.946)"/>
      <path id="Trazado_825089" data-name="Trazado 825089" d="M112,376h14.929v1.866H112Z" transform="translate(-77.736 -310.946)"/>
      <path id="Trazado_825090" data-name="Trazado 825090" d="M64,408H84.527v1.866H64Z" transform="translate(-35.335 -339.213)"/>
      <path id="Trazado_825091" data-name="Trazado 825091" d="M64,440H80.795v1.866H64Z" transform="translate(-35.335 -367.481)"/>
    </g>
  </g>
</svg>
