<svg xmlns="http://www.w3.org/2000/svg" xmlns:xlink="http://www.w3.org/1999/xlink" width="122" height="122" viewBox="0 0 122 122">
  <defs>
    <filter id="Trazado_824488" x="0" y="0" width="122" height="122" filterUnits="userSpaceOnUse">
      <feOffset dy="3" input="SourceAlpha"/>
      <feGaussianBlur stdDeviation="7" result="blur"/>
      <feFlood flood-color="#fff" flood-opacity="0.659"/>
      <feComposite operator="in" in2="blur"/>
      <feComposite in="SourceGraphic"/>
    </filter>
  </defs>
  <g id="Grupo_1074231" data-name="Grupo 1074231" transform="translate(-182 -9165)">
    <g id="Grupo_1074191" data-name="Grupo 1074191" transform="translate(-2 8389)">
      <g transform="matrix(1, 0, 0, 1, 184, 776)" filter="url(#Trazado_824488)">
        <path id="Trazado_824488-2" data-name="Trazado 824488" d="M40,0A40,40,0,1,1,0,40,40,40,0,0,1,40,0Z" transform="translate(21 18)" fill="#ffce00"/>
      </g>
    </g>
    <g id="Grupo_1074192" data-name="Grupo 1074192" transform="translate(218.657 9192.538)">
      <path id="Trazado_724" data-name="Trazado 724" d="M4.385-.047,27.831-.053C29.355,1.49,38.507,10.736,41.708,13.976v36.98a4.413,4.413,0,0,1-4.385,4.44H4.385A4.413,4.413,0,0,1,0,50.956V4.392A4.413,4.413,0,0,1,4.385-.047Z" transform="translate(5.729 0.068)" fill="#f6f6f6"/>
      <g id="Grupo_1192" data-name="Grupo 1192" transform="translate(0)">
        <path id="Trazado_722" data-name="Trazado 722" d="M1497.542,662.327h-23.37a4.572,4.572,0,0,0-4.538,4.594v46.254a4.572,4.572,0,0,0,4.538,4.594H1506.8a4.572,4.572,0,0,0,4.538-4.594V676.3Zm11.25,50.848a2,2,0,0,1-1.988,2.013h-32.633a2,2,0,0,1-1.988-2.013V666.922a2,2,0,0,1,1.988-2.014h22.315l.012.013V677.36h12.286l.008.008Z" transform="translate(-1463.943 -662.327)" fill="#40860d"/>
        <path id="Trazado_723" data-name="Trazado 723" d="M1460.461,950.816a1.769,1.769,0,0,1-1.705,1.817h-37.516a1.769,1.769,0,0,1-1.7-1.817V932.644a1.769,1.769,0,0,1,1.7-1.817h37.516a1.769,1.769,0,0,1,1.705,1.817Z" transform="translate(-1419.534 -905.314)" fill="#38770a"/>
        <text id="XLS" transform="translate(17.034 39.605)" fill="#f8f8f8" font-size="12" font-family="Montserrat-ExtraBold, Montserrat" font-weight="800" letter-spacing="0.04em" style="isolation: isolate"><tspan x="-12.306" y="0">XLS</tspan></text>
      </g>
    </g>
  </g>
</svg>
